<mxfile host="app.diagrams.net" modified="2024-02-01T06:59:23.406Z" agent="Mozilla/5.0 (Windows NT 10.0; Win64; x64) AppleWebKit/537.36 (KHTML, like Gecko) Chrome/113.0.0.0 Safari/537.36" version="22.1.21" etag="9ZjZaBis-PDroXCmJS6i" type="github">
  <diagram name="第 1 页" id="Z9x4v1zoP2R-SqzUMLuW">
    <mxGraphModel>
      <root>
        <mxCell id="0" />
        <mxCell id="1" parent="0" />
      </root>
    </mxGraphModel>
  </diagram>
</mxfile>
